<svg width="73" height="73" viewBox="0 0 73 73" fill="none" xmlns="http://www.w3.org/2000/svg">
  <circle cx="36.5" cy="36.4424" r="36" fill="#E3B873" />
  <path d="M36.8396 43.7206C36.4614 43.7206 36.1526 44.0199 36.1526 44.3917V45.7163C36.1526 46.0881 36.4614 46.3873 36.8396 46.3873C37.2178 46.3873 37.5265 46.0881 37.5265 45.7163V44.3917C37.5265 44.0199 37.2178 43.7206 36.8396 43.7206Z" fill="white" stroke="white" stroke-width="0.1" />
  <path d="M53.5581 34.4428L53.5581 34.4427C53.1069 32.2849 52.0951 30.2508 50.6321 28.5602C49.2237 26.9326 47.4214 25.6513 45.4118 24.8437C45.0828 23.5077 44.3927 22.13 43.0386 21.0926C41.7205 20.0829 40.3931 19.8882 40.3338 19.8799L40.3338 19.8799C40.1374 19.8526 39.9377 19.9096 39.7872 20.0369C39.6366 20.1642 39.5498 20.3492 39.5498 20.5442V23.8478H37.3254C36.736 21.9337 34.9142 20.5357 32.7634 20.5357C30.5652 20.5357 28.7096 21.9956 28.1632 23.9747C25.0152 24.4005 22.1197 25.8912 19.9692 28.2047L20.0059 28.2387L19.9692 28.2047C17.7 30.6462 16.45 33.807 16.45 37.1048C16.45 44.4944 20.3839 50.5047 21.5891 52.1702C21.9705 52.6973 22.5945 53.0115 23.2582 53.0115H25.9692C27.0961 53.0115 28.015 52.1174 28.015 51.0156V50.214C28.6849 50.3117 29.3649 50.3618 30.0457 50.3618H36.1528V51.0156C36.1528 52.1174 37.0717 53.0115 38.1986 53.0115H41.1765C42.134 53.0115 42.9756 52.3491 43.1767 51.4341L43.4969 49.9776C47.673 48.976 51.0324 46.1195 52.6959 42.4129H55.1837C55.9359 42.4129 56.55 41.816 56.55 41.0795V35.78C56.55 35.4234 56.4075 35.0882 56.1493 34.8365C55.8912 34.5849 55.5483 34.4465 55.1838 34.4465H55.1837H55.1837H55.1837H55.1836H55.1836H55.1836H55.1835L53.5592 34.4467C53.5587 34.4454 53.5584 34.4441 53.5581 34.4428ZM55.1762 41.0293H55.1761V41.0708H53.2111C53.5469 40.0272 53.7538 38.9313 53.8138 37.802C53.8337 37.4307 53.5411 37.1162 53.1633 37.0971C52.7857 37.0784 52.4615 37.3611 52.4418 37.7324C52.1746 42.755 48.6861 47.0486 43.8218 48.4988L44.6936 44.5325C44.7736 44.1689 44.5358 43.8128 44.1656 43.7355C43.7961 43.658 43.4301 43.8876 43.3503 44.2508L41.8334 51.1523C41.7678 51.4509 41.4919 51.6694 41.1765 51.6694H38.1984C37.8268 51.6694 37.5266 51.3748 37.5266 51.0156V48.3658C37.5266 47.994 37.2178 47.6948 36.8396 47.6948C36.4614 47.6948 36.1527 47.994 36.1527 48.3658V49.0197H30.0455C29.3637 49.0197 28.6831 48.9637 28.0148 48.8549V44.3914C28.0148 44.0196 27.7061 43.7204 27.3279 43.7204C26.9497 43.7204 26.6409 44.0196 26.6409 44.3914V51.0156C26.6409 51.3749 26.3407 51.6695 25.9691 51.6695H23.2582C23.0355 51.6695 22.8366 51.5694 22.7111 51.3957L22.7111 51.3957C21.5641 49.8104 17.8239 44.0966 17.8239 37.1047C17.8239 34.1413 18.9469 31.301 20.9864 29.1068L20.9498 29.0728L20.9864 29.1068C22.8401 27.1124 25.3092 25.7982 28.0037 25.3561C28.0187 25.7441 28.0834 26.1276 28.195 26.4974H28.0074C27.6292 26.4974 27.3205 26.7966 27.3205 27.1684C27.3205 27.5402 27.6292 27.8395 28.0074 27.8395H37.5191C37.8974 27.8395 38.2061 27.5402 38.2061 27.1684C38.2061 26.7966 37.8974 26.4974 37.5191 26.4974H37.3315C37.4592 26.0749 37.5258 25.6344 37.5266 25.1897H39.5498V26.506C39.5498 26.8778 39.8585 27.177 40.2367 27.177C40.6149 27.177 40.9237 26.8778 40.9237 26.506V21.4319C41.5183 21.6611 42.343 22.1096 43.0288 22.9651C43.7404 23.8526 44.3056 25.182 44.3056 27.1685C44.3056 27.5403 44.6144 27.8395 44.9926 27.8395C45.3708 27.8395 45.6795 27.5403 45.6795 27.1685C45.6795 26.9306 45.6716 26.6808 45.6536 26.4229C47.1527 27.1478 48.4978 28.1728 49.5829 29.4267C50.8977 30.9462 51.8068 32.7736 52.212 34.7114C52.3426 35.3363 52.9049 35.7889 53.5487 35.7888L55.1762 35.7887V41.0293ZM32.7633 21.8778C34.6334 21.8778 36.1527 23.361 36.1527 25.1813C36.1527 25.6361 36.0552 26.0844 35.871 26.4975H29.6555C29.4714 26.0843 29.3737 25.6361 29.3737 25.1813C29.3737 23.3609 30.8931 21.8778 32.7633 21.8778Z" fill="white" stroke="white" stroke-width="0.1" />
  <path d="M44.4116 34.8828L44.4116 34.8828C44.815 33.8281 45.8808 33.1218 47.0621 33.1218C48.2433 33.1218 49.3093 33.8281 49.7125 34.8828C49.7125 34.8828 49.7125 34.8828 49.7125 34.8829L49.6658 34.9007C49.7887 35.222 49.6211 35.5797 49.2915 35.6995L44.4116 34.8828ZM44.4116 34.8828C44.2784 35.2312 44.4605 35.6175 44.8155 35.7465M44.4116 34.8828L44.8155 35.7465M44.8155 35.7465C45.17 35.8755 45.5657 35.7001 45.6986 35.3524L44.8155 35.7465ZM49.0691 35.7888C49.1488 35.7888 49.2297 35.7752 49.3086 35.7465L45.6986 35.3524C45.9011 34.8229 46.4479 34.4638 47.062 34.4638C47.6761 34.4638 48.223 34.8229 48.4255 35.3524C48.5289 35.6229 48.7913 35.7888 49.0691 35.7888Z" fill="white" stroke="white" stroke-width="0.1" />
  <path d="M35.7116 37.5181C35.0601 37.0763 34.2201 36.8056 33.4502 36.5933V33.5143C34.0451 33.5915 34.5484 33.7638 34.9047 33.9765C35.2758 34.1982 35.4733 34.4545 35.4733 34.683C35.4733 35.0548 35.7821 35.354 36.1603 35.354C36.5385 35.354 36.8472 35.0548 36.8472 34.683C36.8472 34.0274 36.4732 33.4413 35.8589 32.9981C35.254 32.5617 34.4127 32.2606 33.4502 32.1628V32.1368C33.4502 31.765 33.1414 31.4657 32.7632 31.4657C32.385 31.4657 32.0763 31.765 32.0763 32.1368V32.1628C31.1138 32.2606 30.2724 32.5617 29.6676 32.9981C29.0533 33.4413 28.6792 34.0274 28.6792 34.683C28.6792 35.6105 29.1508 36.2414 29.8149 36.6918C30.4663 37.1336 31.3064 37.4043 32.0763 37.6166V40.6955C31.4814 40.6184 30.9781 40.4461 30.6218 40.2333C30.2506 40.0117 30.0532 39.7554 30.0532 39.5269C30.0532 39.1551 29.7444 38.8559 29.3662 38.8559C28.988 38.8559 28.6792 39.1551 28.6792 39.5269C28.6792 40.1825 29.0533 40.7686 29.6676 41.2118C30.2724 41.6482 31.1138 41.9492 32.0763 42.0471V42.0731C32.0763 42.4449 32.385 42.7441 32.7632 42.7441C33.1414 42.7441 33.4502 42.4449 33.4502 42.0731V42.0471C34.4127 41.9492 35.254 41.6482 35.8589 41.2118C36.4732 40.7686 36.8472 40.1825 36.8472 39.5269C36.8472 38.5993 36.3757 37.9684 35.7116 37.5181ZM32.0763 33.5143V36.2105C31.3286 35.9782 30.8248 35.757 30.5067 35.5156C30.1827 35.2699 30.0532 35.0051 30.0532 34.683C30.0532 34.4545 30.2506 34.1982 30.6218 33.9765C30.9781 33.7638 31.4814 33.5915 32.0763 33.5143ZM34.9047 40.2334C34.5484 40.4462 34.045 40.6185 33.4502 40.6956V37.9994C34.1979 38.2317 34.7016 38.4529 35.0198 38.6943C35.3437 38.94 35.4733 39.2049 35.4733 39.527C35.4733 39.7554 35.2758 40.0117 34.9047 40.2334Z" fill="white" stroke="white" stroke-width="0.1" />
</svg>